<?xml version="1.0" encoding="UTF-8"?>
<svg version="1.1" viewBox="0 0 2048 2048" width="1280" height="1280" xmlns="http://www.w3.org/2000/svg">
<path transform="translate(979,148)" d="m0 0 32 1 32 3 32 5 27 6 31 9 28 10 32 14 22 11 24 14 27 18 16 12 11 9 13 11 13 12 5 4 6 7 16 16 7 8 11 13 15 20 13 19 12 19 10 18 12 23 12 28 9 25 9 29 7 30 5 29 3 26 1 14v56l-2 25-4 29-5 25-7 28-8 25-8 22-9 21-12 25-15 27-11 17-8 12-16 21-9 11-18 21-20 20-8 7-11 10-11 9-14 11-14 10-15 10-25 15-22 12-29 13-29 11-30 10-16 10-9 4-13 3-46 1h-152l-33 2-36 4-29 5-32 7-38 11-26 9-32 13-24 11-22 11-24 14-20 12-34 24-16 13-10 8-14 12-8 7-9 9-8 7-7 7-7 8-9 9-9 11-9 10-13 17-10 13-14 20-14 22-10 17-10 18-8 16-12 26-13 33-11 33-9 33-7 33-5 31-3 26-2 32-1 26-3 16-6 14-9 12-11 9-15 7-11 3-13 1-16-3-16-8-9-7-8-9-7-12-5-15-1-15 1-31 3-39 5-39 7-38 9-38 11-38 10-29 11-28 13-30 20-40 12-21 14-23 18-27 12-17 13-17 11-14 9-10 9-11 11-12 3-4h2l2-4 32-32 8-7 10-9 11-9 9-8 14-11 21-16 22-15 17-11 21-13 27-15 26-13 15-7 27-12 34-13 36-12-28-24-26-24-2-4h-2l-7-8-11-12-9-11-14-18-16-23-12-20-9-16-9-17-13-29-10-27-9-29-8-34-5-31-3-26-1-15v-49l3-34 5-32 6-28 9-31 9-26 10-24 16-33 14-24 15-23 8-11 9-12 9-11 12-14 11-12 24-24 11-9 14-12 20-15 13-9 19-12 21-12 23-12 25-11 36-13 29-8 27-6 31-5 31-3zm-21 130-29 3-27 5-30 8-25 9-25 11-22 12-13 8-12 8-18 13-10 9-11 9-20 20-7 8-12 14-8 11-9 13-11 17-8 14-13 28-6 15-10 30-6 26-4 25-2 17-1 17v25l2 26 4 27 6 27 8 26 8 21 11 24 11 20 12 19 13 18 11 13 7 8 12 13 10 10 8 7 13 11 13 10 18 12 15 9 12 7 23 11 23 9 25 8 26 6 24 4 23 2h46l25-2 25-4 32-8 29-10 29-13 24-13 17-11 14-10 14-11 10-9 8-7 22-22 18-22 12-17 12-19 10-18 12-26 7-19 6-18 6-23 5-28 3-32v-39l-3-29-5-29-8-30-10-28-11-24-12-23-12-19-12-17-11-13-8-10-16-17-14-13-11-9-18-14-20-13-21-12-16-8-20-9-22-8-29-8-26-5-22-3-13-1z"/>
<path transform="translate(1829,1087)" d="m0 0h10l16 3 16 8 10 9 7 8 6 10 5 16v22l-4 13-8 14-9 11-12 14-10 11-9 11-12 13-9 11-12 13-9 11-12 13-9 11-11 12-7 8-12 14-9 10-7 8-12 14-9 10-7 8-12 14-9 10-7 8-12 14-10 11-9 11-12 13-9 11-12 13-9 11-12 13-9 11-11 12-7 8-12 14-9 10-7 8-12 14-9 10-7 8-12 14-9 10-7 8-12 14-9 10-7 8-12 14-9 10-7 8-12 14-9 10-7 8-12 14-9 10-7 8-12 14-9 10-7 8-12 14-10 11-9 11-12 13-8 10h-2l-2 4-11 12-13 9-13 5-14 2-16-3-14-6-10-8-6-5v-2l-3-1-5-6-6-5-6-7-6-5-6-7-6-5-6-7-6-5-6-7-6-5-6-7-6-5-6-7-6-5-7-8-24-24-5-4-6-7-6-5-6-7-6-5-6-7-6-5-6-7-6-5-6-7-6-5-6-7-6-5-6-7-6-5-7-8-129-129-5-15-1-7v-9l3-15 5-12 8-11 9-9 13-8 12-4 5-1h19l13 3 9 6 20 20 6 5 6 7 6 5 6 7 6 5 6 7 6 5 6 7 6 5 6 7 6 5 5 6 7 6 5 6 7 6 5 6 7 6 5 6 7 6 5 6 7 6 5 6 7 6 5 6 7 6 5 6 7 6 6 7 6 5 5 6 7 6 4 4v2l4 2v2l4 2 69 69v2h4v-2l5-5 10-11 9-11 13-14 9-11 13-14 9-11 11-12 7-8 2-3h2l2-4 13-15 11-12 11-13 9-10 7-8 12-14 9-10 7-8 12-14 9-10 7-8 12-14 9-10 1-2h2l2-4 9-10 7-8 8-10h2l2-4 9-10 1-2h2l2-4 9-10 1-2h2l2-4 11-12 9-11 4-5h2l2-4 12-13 9-11 12-13 9-11 11-12 7-8 9-10 9-11 12-13 9-11 10-11 7-8 9-10 9-11 12-13 1-2h2l2-4 13-15 10-11 9-11 11-12 7-8 2-3h2l2-4 13-15 12-13 9-11 12-12 14-8 13-4z"/>
</svg>
