<?xml version="1.0" encoding="UTF-8"?>
<svg version="1.1" viewBox="0 0 4096 1054" width="1280" height="1280" xmlns="http://www.w3.org/2000/svg">
<path transform="translate(2,5)" d="m0 0h1016v410l-9 3-17 4h-9l3-19v-44l-6-26-4-15-14-34-8-17h-3l-9 21-8 20-9 30-3 12-3 20v27l7 28 2 5-1 4-9 3-11 3-14 3h-7l-3-13-3-16-10-30-8-16-7 15-6 17-5 17-4 26-1 9-9 4-15 3-57 12-15 3h-19l-9-3-5-1 1 8-1 2-13 4h-9l-2-1-3-31-6-21-8-17-9-14-16-17-14-10-16-8-16-6-20-4h-29l-10 2-20 6-12 6-17 11-13 12-5 5-10 15-9 19-5 14-3 17v25l5 24 6 19v4l-10 2-33 8-49 10-40 8-10 1-1-2-2-27-5-25-5-19-10-26-9-22v-2h-2l-2 4-10 21-8 21-6 18-5 25-2 12v22l2 13-4 3-16 3-37 8-5-2 1-9 5-16 4-20 1-7v-31l-3-25-7-30-6-22-5-15-10-26-17-39-4 4-8 16-10 21-11 29-10 30-7 30-3 28v28l4 22 5 15 11 22 5 7-1 3-17 5-26 6-59 12-15 2-1-1-2-22h-1v-599zm385 50-8 10-9 13-10 21-2 7-2 18-9 2-25 3-14 5-8 4-8 7 2 1 86-1-1-7-3-15v-22l6-24 6-19zm90 88-7 10-5 11-3 13-5 2h-1l-14 2-14 7v1h46l1-3-1-22 4-17zm-97 2m184 101-1 7-3 53v24h9v-33l-3-43-1-8zm-76 17m1 1 1 10 8 29 11 35 1 2 9-1-2-11-14-34-9-21h-2l-2-9zm150 2-11 24-10 24-7 17v7l4 2 5-1 8-25 12-38 1-10zm-147 5m102 31-6 16-2 12v2l9 1v-31zm-174 1m1 1m113 0v2l3-1zm-112 1 1 2zm1 2m2 1v3l14 19 26 36 4-1 5-4-2-5-11-12-16-17-19-19zm112 1v15l1 4-2 3v2l7-1-2-14-3-9zm166 0-10 9-21 21-9 11-8 10 2 4 4 3 4-2 28-38 12-15v-3zm-226 13 1 5 2-3zm175 1-7 6-10 13-1 6 5 2 5-1 8-19 1-7zm-115 2m-57 1m-1 1 2 9 5 12 2 2 6-1 1-2-3-8-9-11-2 1zm55 0 1 3zm-165 34 5 6 25 16 10 7 15 10 10 5h4l3-6-1-3-17-9-52-26zm389 0-19 9-19 10-24 12-7 4 1 6 2 3 5-1 15-8 43-29 5-4v-2zm-324 3 2 5 6 9 6 6 5-2 4-3-1-3-16-10zm257 1-17 11-1 2 5 6 4-1 12-13 3-5zm-288 51 5 5 17 8 3-1 1-8-15-4zm313 0-15 3-1 3 2 7 5-1 22-11v-1zm-372 20 1 2 25 6 41 9 10 2 1-1 1-10-24-4-20-2-13-2zm420 0-40 5-17 3-1 2 1 8 22-3 31-7 29-7v-1zm-356 34-15 3-3 2 14 4 15 1v-10zm9 25-49 11-21 5-6 1 1 2h14l51-6 14-2 1-1v-10zm8 25-16 8-8 5v1h8l18-4 2-2-1-7z" fill="#fff"/>
<path transform="translate(2441,16)" d="m0 0 4 2 9 20 18 41 15 35 17 40 12 28 13 30 34 78 8 19 20 47 13 30 6 15-1-255v-129h116l1 2v703l-1 1h-93l-6-9-14-29-16-33-15-33-15-31-13-28-16-33-13-28-19-40-32-68-13-28-1-3v50l2 76 1 103 2 61 1 63-2 6-4 4h-111l-4-5-1-7v-693l1-1z" fill="#fff"/>
<path transform="translate(1619,16)" d="m0 0h28l22 1 28 6 24 9 16 8 16 9 12 10 11 9 21 21 12 17 8 13 8 16 8 20 4 17 1 7 2 5v65l-5 22-5 16-11 25-13 22-7 9-12 13-6 8 1 6 12 17 8 11 8 16 10 22 6 22 3 12 3 51 1 26v174l-2 2h-123l-1-1-1-12-1-88-1-128-5-16-4-10-9-15-9-10-10-7-12-7-16-5-5-1-81-4v135l-3 168-1 1h-121l-1-1v-594l2-111zm-66 122v158h99l9-2 13-5 15-10 12-11v-2h2l6-10 7-14 2-17 1-3v-11l-2-7-2-12-11-22-11-12-15-10-12-6-10-3-13-1z" fill="#fff"/>
<path transform="translate(3414,16)" d="m0 0 49 1 23 5 16 5 23 10 21 13 14 10 14 13 8 7 9 10 12 17 9 15 11 23 9 31 2 11v58l-6 29-7 19-7 16-10 18-9 13-8 10-12 14-1 4 10 14 7 10 10 17 8 16 9 27 6 32 1 35 1 85v117l-1 2h-123l-1-1-1-26-1-56-1-118-1-28-4-15-9-19-7-9-9-10-18-11-11-4-14-3-79-4v53l-1 189-1 61-1 1h-121l-1-1v-691l1-13 1-1zm-68 122v158h100l9-2 13-5 17-12 8-8 8-10 7-15 3-11v-31l-7-21-9-13-7-8-14-10-8-5-18-6-11-1z" fill="#fff"/>
<path transform="translate(3885,4)" d="m0 0 30 1 25 4 17 5 19 8 17 9 13 9 13 10 15 13 9 10 13 17 10 16 11 21 9 27 4 18 2 18v362l-3 20-5 19-9 24-10 19-10 15-9 11-12 14-12 12-13 10-19 12-16 8-15 7-23 6-18 4h-50l-8-2-14-2-21-7-19-8-23-14-10-8-14-12-10-9-13-15-10-14-9-15-9-17-8-21-5-19-2-12v-371l5-29 5-17 5-15 8-15 10-17 10-13 12-14 15-15 16-12 15-10 27-13 15-5 19-5 13-2zm-5 124-17 5-11 6-11 9-10 11-6 10-6 15-1 4v357l6 20 7 11 9 11 12 11 9 5 15 6h32l16-7 11-7 10-8 9-11 6-9 5-11 3-11 1-9v-270l-1-47-1-26-4-16-8-16-6-9-5-5-8-7-12-7-17-5z" fill="#fff"/>
<path transform="translate(1917,17)" d="m0 0h335l1 1v120l-1 1-210 1-1 156h210l2 3 1 117-3 5-3 1h-207v174h198l13 2 2 4v119l-1 2h-335l-1-1z" fill="#fff"/>
<path transform="translate(1013,636)" d="m0 0h5v105l-19 10-35 15-31 13-79 33-24 10-45 19-146 61-26 11-60 25-45 19-74 31-79 33-33 14-24 10-17 6h-276l-2-1v-68l2-3 82-28 91-31 353-120 59-20 40-14 36-12 35-12 36-12 91-31 56-19 65-22 25-9 36-12z" fill="#fff"/>
<path transform="translate(2775,17)" d="m0 0h396l1 1v120l-1 1h-136l1 362v221l-1 1h-123l-1-1-1-582-135-1-1-3v-116z" fill="#fff"/>
<path transform="translate(953,372)" d="m0 0h2l1 29 1 11 10-15h3v6l-10 19-4 8-1 46-1 10 22-6 29-7 12-1 1 1v86l-8 4-32 10-30 8-16 5-21 6-25 7-24 7-28 8-25 7-29 8-24 7-31 9-18 5-42 12-25 7-131 37-191 54-38 11-25 7-96 27-50 14-43 12-54 15-8 1-1-2-1-28-1-6h-1v-84l9-4 16-5 43-11 60-15 5-1 2-37 6-74 4-51 1-18 5 1 1 36v25l2 1 1-5 1-19 2-5 2 1 1 10 1 2 3-1 2-4 5-1-1 5-8 18-9 17-1 25 1 48 1 20 69-17 41-10 2-7 5-58 1-26 3-25 4 1 1 4 2 28h3l3-3h4l-1 5-8 15-1 62 12-4 64-16 413-103 65-16 15-3h3v-28l1-25 2-12 4-2 2 4v13l4-2h3l-1 4-2 2-2 7-1 1v29l1 3h7l20-5 27-7 20-5 3-39 2-25 2-24 2-21 2-6z" fill="#fff"/>
<path transform="translate(1217,2)" d="m0 0 14 1 10 5 7 8 7 12 1 3v991l-5 13-4 6-5 6-13 7h-16l-3-3-8-6-8-9-4-9-1-5v-987l2-9 5-10 7-7 9-6z" fill="#fff"/>
<path transform="translate(1014,840)" d="m0 0h4v210l-1 1h-441v-4l19-10 26-12 30-14 29-14 28-13 34-16 28-13 108-51 72-34 28-13z" fill="#fff"/>
<path transform="translate(1641,903)" d="m0 0 4 1v69l14-8 6-2 7-1h8l6 3 7 6 4 6 2 9 2 50 9 6v5h-38l-1-4 4-4 6-2v-49l-6-9-10-3h-7l-10 4-2 6-1 53 6 1 4 3-1 4h-38l-2-1 1-4 11-4v-109l-4-8-4-4v-2l-3 1-4 5-11 7-10 21-17 50-14 40-6 9h-3l-8-16-13-33-6-16-11 32-12 30-3 5-4-2-4-9-8-17-11-27-16-41-8-18-6-9-5-4-8-5v-4h48l1 4-6 4-2 4 1 10 11 28 15 36 6 15 2 1 1-8 11-28 1-2-1-10-5-15-8-20-2-4-16-8-4-3v-4h46l-1 4-3 5 1 9 6 16v2h2l2-8 4-14-1-5-5-6v-3h35l2 2h-2l-2 4-6 4-7 2-2 4-9 20-3 8v8l11 27 5 13 2 10 3-4 2-11 7-24 9-28 3-13v-10l-6-5-4-3v-4l46-1 6-3z" fill="#fff"/>
<path transform="translate(3046,913)" d="m0 0h8l2 1-1 5-5 3-11 4h-3v18l3 61 2 20 3 10 14 6 2 2v4h-56l1-4 10-7h2l1-3v-18l-2-55-1-5-1 4-8 17-10 19-8 16-12 25-5 9-2 2-4-1-3-5-6-16-10-25-14-34-4-9-1 2-4 31v42l5 5 9 5 2 2v3h-49l1-4 10-7 3-3 2-5 4-29 2-20 1-7 1-38-1-7-18-6-1-7h31l9 1 3 3 12 35 13 32 10 25 3 4 10-19 9-20 8-16 12-26 4-15 5-3z" fill="#fff"/>
<path transform="translate(3439,913)" d="m0 0h25l15 2 10 5 5 4 7 10 1 3v17l-3 7-5 9-9 8-4 2 3 9 9 13 10 13 11 12v2h2l5 5 7 3 14 2 2 1-1 7-4 3-4 1h-12l-10-3-10-6-10-9-8-10-14-20-9-11-18-5 1 41 4 8 12 6 1 5h-56l-2-1 2-4 6-4 10-3v-110l-9-3-6-3-1-5zm8 8-3 3-2 32v19l5 4h12l8-2 12-11 4-11v-12l-4-12-8-9-3-1z" fill="#fff"/>
<path transform="translate(2026,913)" d="m0 0h25l17 3 9 5 5 4 5 7 2 8v14l-3 7-6 9-9 9-4 3 5 10 9 12 10 13 12 13 7 6 9 2 9 1 2 1v6l-5 4-4 1h-12l-11-4-12-7-7-7-10-13-9-14-8-11-4-3-17-5 1 44 4 5 14 8v3h-58l-2-1 2-4 8-4 9-4 1-14v-80l-1-11-5-5-10-4v-5l1-1zm8 8-3 2v55l14 2 10-4 6-4 6-9 2-7v-15l-3-10-6-7-6-3z" fill="#fff"/>
<path transform="translate(2439,913)" d="m0 0 37 1 2 2 1 9v11l-1 5-4-1-8-14-40-1v15l-2 34 3-1 26-2 6-7 5-1 1 2v12l-1 18-5-1-6-8-2-1-23-1-4-1 3 52h40l8-7 7-9h3v22l-2 5-2 1h-95l-2-3 6-5 10-4 4-5v-99l-4-6-12-6-2-4 1-1z" fill="#fff"/>
<path transform="translate(3852,913)" d="m0 0h6l2 1-1 7-20 7v107h47l9-6 10-15 4-1 1 4-3 19-2 9-2 2h-104l-1-4 8-5 9-3 1-6v-105l-6-1-9-4-1-4 1-1z" fill="#fff"/>
<path transform="translate(4014,903)" d="m0 0h15l8 2 5 4 1 2v10l-3 4-5-1-15-8h-16l-5 4-4 13-2 19-1 12 28 1 1 1v7l-1 2-7 1-20 1v22l1 38 6 2 4 4v4h-40v-3l5-5 5-2 2-61h-9l-5-2 1-4 11-6 4-23 5-12 6-11 7-7 10-6z" fill="#fff"/>
<path transform="translate(2655,962)" d="m0 0h9l9 3 5 5 2 4 1 59 2 4 13-1-2 5-4 6-5 2h-11l-5-3-5-4-10 6-4 1h-14l-6-4-6-5-1-7 2-10 8-7 17-8 11-5v-21l-3-6-10 1-6 2-2 9-6 4-9 1 1-8 4-8 10-8 12-6zm6 50-7 3-10 6-3 4v8l5 6 4 1 7-2 5-4v-22z" fill="#fff"/>
<path transform="translate(2243,962)" d="m0 0h8l8 3 5 4 2 3 1 5 1 53 1 6h15l-1 4-5 7-5 2h-12l-9-7-12 6-4 1h-13l-5-3-7-8-1-2v-7l4-8 9-7 13-6 10-4h2l-1-25-2-3h-7l-5 2-8 11-8 4h-5l-1-1 1-8 9-10 11-8zm6 50-13 5-7 4-1 2v8l2 5 3 3 9-1 7-4 3-6v-14l-1-2z" fill="#fff"/>
<path transform="translate(3656,962)" d="m0 0h8l9 3 6 8 1 3 1 55 1 5h15l-1 5-5 6-2 1h-15l-5-4-1-5-14 9-5 1h-13l-7-4-4-5-2-9 3-8 7-7 19-9 9-4v-23l-1-3-2-1h-8l-7 2-4 11-5 3-8 1-1-5 3-7 9-9 9-6zm2 51-13 7-4 5-1 7 3 5 3 2h9l7-6 2-7v-12l-1-1z" fill="#fff"/>
<path transform="translate(3726,903)" d="m0 0 4 1 1 133 9 4 2 2v4h-42l1-4 3-3 8-2-1-67-1-50-5-2-3-4 1-3z" fill="#fff"/>
<path transform="translate(2161,962)" d="m0 0h19l8 3 7 6 3 5 1 9-3 6-6 4-8 1h-35l1 18 7 12 7 6 3 1h16l8-4 6-4h3l-1 7-5 8-10 7-8 2h-18l-8-4-8-8-7-12-2-8v-19l3-11 5-9 8-8 9-6zm2 7-9 6-6 9v4h33l3-1v-9l-3-5-8-4z" fill="#fff"/>
<path transform="translate(3182,962)" d="m0 0h18l11 4 6 6 1 3v12l-3 5-5 3h-44l3 19 6 12 6 5 5 2h15l8-4 5-4 4 1-1 6-4 6-9 8-5 2-6 1h-17l-8-4-6-5-7-11-4-10-1-5v-14l5-15 6-9 7-7 11-6zm2 7-10 6-6 7-1 4 5 2h30l2-1v-10l-7-6-5-2z" fill="#fff"/>
<path transform="translate(1751,962)" d="m0 0h19l9 4 6 5 3 5v8l-4 9-3 2-9 1h-35v12l3 9 6 10 7 5 3 1h13l10-4 4-3h2l1 6-2 6-8 7-6 3-5 1h-19l-8-4-8-7-7-12-2-7v-24l5-12 8-10 9-7zm2 7-8 5-6 7-1 5 4 2h28l4-3v-8l-4-5-7-3z" fill="#fff"/>
<path transform="translate(3575,962)" d="m0 0h19l9 4 7 8 2 6-1 8-5 6-2 1-9 1h-35l1 15 7 14 7 6 5 2h14l9-4 3-2h4l-1 7-7 8-6 5-8 2h-17l-7-3-8-6-7-9-4-10v-27l8-17 7-8 8-5zm2 7-9 5-7 8-1 5 3 1h31l3-2v-8l-3-5-6-3-4-1z" fill="#fff"/>
<path transform="translate(3103,962)" d="m0 0h19l9 4 5 5 4 6 1 8-4 7-5 3h-44l1 13 4 11 6 9 6 4 3 1h15l8-4 5-4 4 1-1 6-6 9-9 6-8 2h-18l-8-4-7-7-7-11-3-8-1-7v-11l2-8 7-14 9-10 10-6zm3 7-10 6-6 7-1 4 5 2h29l3-2v-8l-2-4-9-5z" fill="#fff"/>
<path transform="translate(2796,962)" d="m0 0h18l10 4 6 5 3 8-2 10-5 5-3 1h-43l1 3 2 16 6 12 6 5 5 2h15l8-4 5-4 4 1-1 7-6 8-9 6-10 2h-16l-10-6-5-5-6-10-4-11-1-4v-13l8-20 10-11 11-6zm2 7-9 5-7 8-1 5 4 1h31l2-1 1-4-2-8-6-5-3-1z" fill="#fff"/>
<path transform="translate(2312,903)" d="m0 0h4v136l8 1 4 3v4h-40l2-4 6-5 2-1 1-46v-24l-1-40-6-9-2-4 5-3z" fill="#fff"/>
<path transform="translate(4055,962)" d="m0 0h20l9 4 6 5 2 4v13l-3 5-4 2h-45l2 16 5 12 6 7 6 3h16l9-3 6-4h2l-1 8-6 7-9 6-9 2h-15l-9-4-7-5-7-11-3-9-1-5v-11l2-14 10-16 9-8zm4 7-8 4-5 4-3 10 1 1h32l3-3v-7l-4-6-10-3z" fill="#fff"/>
<path transform="translate(1895,962)" d="m0 0h20l9 4 5 3 3 6v14l-5 5-2 1h-45l1 2 2 12 4 12 8 10 5 2h15l9-3 5-4 4 1-1 6-5 7-11 7-8 2h-16l-10-5-9-10-4-8-3-11v-19l4-11 7-11 10-8zm4 7-10 5-5 6-1 7 2 1h32l2-2v-9l-5-6-9-2z" fill="#fff"/>
<path transform="translate(3318,961)" d="m0 0 14 1 6 3 4 5 2 10v5l-4-1-6-5-3-6-2-1h-15l-1 3v8l3 6 8 7 11 8 5 5 4 5 2 5v14l-4 7-8 7-7 2h-21l-8-4-4-4-1-3v-9l1-2 5 1 7 8 3 2 6 1h14l-1-12-3-5-15-15-8-7-5-6v-15l7-11 5-4z" fill="#fff"/>
<path transform="translate(1825,959)" d="m0 0 3 1 1 5v6l13-8 9-1 7 3 3 4-2 6-5 6-21-1-4 5-2 26v26l5 1 7 3 1 6h-41l-1-4 9-6 1-34v-12l-1-12-6-5v-2l9-5z" fill="#fff"/>
<path transform="translate(2584,950)" d="m0 0 3 2v12h11l15 1 2 2-1 8-24 2h-3v42l2 13 5 2 13 1 7-1 1 5-5 4-8 5-3 1h-14l-6-3-5-4-4-8-1-4v-54l-8-1v-4l10-10h2l2-4z" fill="#fff"/>
<path transform="translate(2521,961)" d="m0 0 13 1 8 4 1 1v18l-5-2-7-8-3-3h-10l-3 3-1 2v7l7 8 13 10 7 5 5 8 1 3v15l-3 6-8 8-6 2h-20l-9-3-6-5-1-2v-8l2-4 4 1 5 5 4 5 6 1h11l3-1 2-6-1-9-4-5-12-9-13-12-3-5v-12l3-7 6-7 8-4z" fill="#fff"/>
<path transform="translate(3254,950)" d="m0 0 3 3v11h11l17 1 1 1v9l-9 1h-19v49l2 7 3 2h17l4-1 1 5-5 5-5 4-7 2h-14l-6-4-6-5-1-2v-62h-7l-3-1 1-6 7-7 8-7z" fill="#fff"/>
<path transform="translate(2726,950)" d="m0 0 2 1 1 13h11l17 1 1 1v9l-9 1-20 1v21l2 29 2 5 5 2 12 1 8-2-1 5-7 8-8 3h-17l-9-9-3-5-1-58-9-2 1-5 7-7 8-6z" fill="#fff"/>
<path transform="translate(3941,957)" d="m0 0 3 1 1 79 6 3 3 3v4h-39l-1-3 5-5 4-2 1-20v-35l-8-8 1-4 19-10z" fill="#fff"/>
<path transform="translate(3925,923)" d="m0 0h12l6 3v12l-2 3-3 1h-14l-1-1v-10z" fill="#fff"/>
<path transform="translate(564,256)" d="m0 0h1v12h-1z" fill="#fff"/>
<path transform="translate(153,569)" d="m0 0" fill="#fff"/>
<path transform="translate(592,326)" d="m0 0" fill="#fff"/>
<path transform="translate(540,325)" d="m0 0" fill="#fff"/>
<path transform="translate(539,318)" d="m0 0" fill="#fff"/>
<path transform="translate(509,313)" d="m0 0" fill="#fff"/>
<path transform="translate(508,311)" d="m0 0" fill="#fff"/>
<path transform="translate(507,309)" d="m0 0" fill="#fff"/>
<path transform="translate(593,307)" d="m0 0" fill="#fff"/>
<path transform="translate(506,306)" d="m0 0" fill="#fff"/>
<path transform="translate(505,304)" d="m0 0" fill="#fff"/>
<path transform="translate(456,187)" d="m0 0 2 1z" fill="#fff"/>
<path transform="translate(579,1053)" d="m0 0" fill="#fff"/>
<path transform="translate(373,364)" d="m0 0" fill="#fff"/>
<path transform="translate(538,330)" d="m0 0" fill="#fff"/>
<path transform="translate(593,324)" d="m0 0" fill="#fff"/>
<path transform="translate(540,323)" d="m0 0" fill="#fff"/>
<path transform="translate(593,322)" d="m0 0" fill="#fff"/>
<path transform="translate(593,319)" d="m0 0" fill="#fff"/>
<path transform="translate(508,318)" d="m0 0" fill="#fff"/>
<path transform="translate(509,316)" d="m0 0" fill="#fff"/>
<path transform="translate(510,315)" d="m0 0" fill="#fff"/>
<path transform="translate(430,315)" d="m0 0" fill="#fff"/>
<path transform="translate(427,311)" d="m0 0" fill="#fff"/>
<path transform="translate(426,310)" d="m0 0" fill="#fff"/>
<path transform="translate(425,309)" d="m0 0" fill="#fff"/>
<path transform="translate(502,297)" d="m0 0" fill="#fff"/>
<path transform="translate(498,287)" d="m0 0" fill="#fff"/>
<path transform="translate(564,254)" d="m0 0" fill="#fff"/>
<path transform="translate(435,186)" d="m0 0" fill="#fff"/>
<path transform="translate(465,172)" d="m0 0" fill="#fff"/>
<path transform="translate(473,158)" d="m0 0" fill="#fff"/>
</svg>
