<?xml version="1.0" encoding="UTF-8"?>
<svg version="1.1" viewBox="0 0 2048 675" width="1280" height="1280" xmlns="http://www.w3.org/2000/svg">
<path transform="translate(244)" d="m0 0h42l29 4 26 6 23 8 25 12 15 9 17 12 13 11 8 7 2 4-49 49-5-3-13-11-17-11-17-9-21-8-21-5-15-2-14-1h-13l-22 2-20 4-24 8-16 8-11 6-17 12-13 12-5 4-7 8-13 17-9 15-10 21-7 21-5 24-1 8v38l4 24 7 24 9 21 10 17 10 14 11 12 15 15 15 11 15 9 21 10 21 7 20 4 20 2h19l20-2 25-5 21-7 23-12 17-12 13-12 11-11 9-14 8-16 5-13 6-25 2-11h-171v-71h241l2 7 2 23v28l-3 29-5 25-8 26-10 23-13 22-11 14-9 10-18 18-14 11-14 10-18 10-14 7-19 7-21 6-22 4-16 2-14 1h-30l-28-3-20-4-24-7-20-8-19-9-17-10-16-11-10-8-14-12-18-18-9-11-12-16-12-20-9-17-8-20-5-15-6-25-4-26v-44l5-29 5-20 7-21 11-24 11-19 11-16 8-10 12-14 18-18 11-9 19-14 22-13 23-11 25-9 25-6 23-4z" fill="#4484F5"/>
<path transform="translate(1417,186)" d="m0 0h24l19 3 16 5 17 8 14 10 12 11 2 1v-28h69l1 1v316l-2 23-5 25-7 21-8 17-9 14-8 10-9 10-12 10-14 9-16 8-21 7-21 4-10 1h-34l-21-3-18-5-21-9-16-10-13-10-13-12-9-11-9-12-9-16-4-8 1-4 25-10 36-15 3 1 8 15 8 11 12 12 10 7 14 7 13 4 5 1h30l17-4 16-7 11-8 10-10 9-15 7-21 2-12 1-11v-33l-8 7-9 8-14 9-19 8-16 4-15 2h-21l-20-3-21-6-22-10-14-9-13-10-12-11-11-12-12-17-12-23-6-17-5-20-2-17v-26l3-21 6-22 9-21 8-14 10-14 12-14 7-7 11-9 13-9 14-8 16-7 16-5 15-3zm11 66-17 3-15 6-14 9-10 9-7 7-10 15-7 16-4 14-2 14v20l3 17 5 15 7 14 8 11 9 10 13 10 16 8 12 4 13 2h16l16-3 15-6 14-9 11-10 10-13 8-16 5-15 3-18v-22l-3-19-6-18-8-15-8-10-6-7-13-10-16-8-15-4-6-1z" fill="#4485F5"/>
<path transform="translate(1058,186)" d="m0 0h28l22 3 19 5 16 6 16 8 18 12 14 12 10 10 10 13 10 16 10 21 7 24 3 20 1 24-2 21-5 22-5 15-10 21-10 15-9 11-9 10-10 9-18 13-19 10-19 7-19 5-22 3h-26l-27-4-20-6-20-9-14-8-12-9-14-12-12-13-10-14-8-14-7-15-6-18-4-19-2-20v-14l2-21 5-22 7-19 12-23 12-16 11-12 8-8 16-12 19-11 19-8 23-6zm6 66-17 3-13 5-13 7-10 8-11 11-10 15-7 16-5 21-1 11v11l3 21 6 18 9 16 8 10 10 10 15 10 16 7 13 3 8 1h15l17-3 13-5 13-7 13-10 7-7 10-14 7-14 6-20 2-18-1-19-3-15-6-17-8-14-8-10-10-10-10-7-16-8-12-4-13-2z" fill="#FDBB0D"/>
<path transform="translate(694,186)" d="m0 0h27l23 3 21 6 16 6 17 9 14 10 11 9 14 14 10 13 11 18 9 20 6 21 3 18 1 11v19l-2 19-4 19-7 20-8 16-10 16-8 10-11 12-11 10-14 10-16 9-16 7-19 6-21 4-10 1h-26l-22-3-25-7-22-10-16-10-14-11-18-18-10-13-11-19-8-19-6-21-3-19v-36l3-19 6-21 8-19 9-16 8-11 12-14 7-7 14-11 15-10 16-8 19-7 16-4zm6 66-18 3-15 6-12 7-10 8-10 10-9 14-8 17-4 17-1 6v28l4 19 5 13 7 13 7 9 9 10 13 10 16 8 13 4 13 2h16l20-4 16-7 12-8 12-11 7-8 8-13 5-11 5-17 2-16v-14l-2-16-4-15-9-19-9-12-6-7-11-9-14-8-12-5-12-3-7-1z" fill="#EA493A"/>
<path transform="translate(1882,186)" d="m0 0h29l20 3 16 5 12 5 15 8 11 8 13 11 9 9 11 14 10 15 8 15 12 29v5l-25 10-41 17-126 52-31 13 2 5 7 11 9 10 7 7 15 9 14 5 9 2 9 1h17l17-3 14-5 14-8 10-8 11-11 7-10 5 1 43 29 10 7-2 5-9 11-11 12-11 10-15 11-18 10-20 8-20 5-22 3h-24l-23-3-19-5-20-8-15-8-14-10-13-11-10-10-13-17-11-19-9-22-6-25-2-16v-29l4-27 6-21 8-18 8-15 14-19 16-16 13-10 15-9 17-8 19-6zm8 65-17 4-16 8-13 9-13 13-10 16-6 15-3 15-1 18 25-10 87-36 39-16-2-6-7-9-7-7-14-8-15-5-7-1z" fill="#EA493A"/>
<path transform="translate(1635,19)" d="m0 0h71l1 1v491l-1 1h-71z" fill="#38A65B"/>
</svg>
