<?xml version="1.0" encoding="UTF-8"?>
<svg version="1.1" viewBox="0 0 2048 527" width="1280" height="1280" xmlns="http://www.w3.org/2000/svg">
<path transform="translate(2,2)" d="m0 0h507v205l-13 3h-4l2-10v-20l-5-21-10-24-3-4-9 21-6 20-2 13v13l3 12 2 6-6 2-14 3-1-1-2-13-5-15-4-9-2-1-3 9-5 14-3 21-32 7-14 3h-9l-9-2v5l-6 2h-5l-2-17-4-12-6-11-10-11-11-7-13-5-13-2-14 1-13 4-12 7-10 9-7 11-5 12-2 10v14l3 13 3 9-26 6-44 9-1-1-1-16-4-17-8-21-3-7-3 3-7 16-5 15-3 17v10l1 8-27 6-4-1 4-10 3-17v-12l-3-21-7-25-10-25-5-11-3 4-9 19-9 25-4 16-2 14v18l3 14 7 14 3 5-16 4-39 8h-4l-1-16v-294zm192 24-9 12-6 13-1 11-18 2-10 4-5 5 10-1h26l10 1-3-12v-11l4-15 3-9zm45 44-6 9-2 10h-8l-9 4v1h24l-1-12 3-12zm-95 3m69 21m69 27-2 30v14h5v-14l-2-30zm-40 6m1 2 1 2zm78 0 1 2zm-77 2 2 10 9 29 5-1-1-5-14-33zm76 0-15 35 1 3 4 1 9-29 2-6zm-113 16m150 0m-149 1m148 0m-147 1 2 4 14 19 8 11 4-2v-3l-8-8-7-8-8-8zm146 0v3zm-88 1v16h5l-1-7-3-9zm30 0-4 12v4h5v-16zm56 2m-1 1-14 14-7 8-4 5 3 3h2l14-19 7-9zm-114 7 3 9 3 6 4-1-1-4-8-10zm88 0-9 11v3l4 1 4-8 2-7zm-145 18m202 0m-201 1m199 0m-197 1 3 3 26 17 6 3 2-5-19-10-16-8zm31 0m134 0m30 0-30 15-5 3 2 5 8-4 24-16 3-3zm-163 1 3 5 5 6 4-2 1-2-11-7zm131 0-11 7 3 4h2l8-10zm-148 25m166 0m-165 1 4 3 10 5 1-6-10-2zm160 0-10 2 1 6 14-7v-1zm-190 10 4 2 35 8h2l1-5-1-1-34-4zm218 0-34 4-1 3 1 3 11-2 30-7v-1zm-180 17-13 2 1 2 14 2v-6zm0 13-39 9v1l14-1 26-3 3-1-1-5zm5 12-13 7 4 1 10-2 1-4z" fill="#4EC768"/>
<path transform="translate(1173,8)" d="m0 0h49l12 27 23 54 23 53 23 54 3 7v-70l-1-77v-47l1-1h56l1 2v350l-1 1h-46l-17-35-13-28-18-38-16-34-17-36-6-13v17l3 153v11l-3 3h-54l-3-3v-349z"/>
<path transform="translate(715,8)" d="m0 0h118l18 4 12 5 13 7 11 9 12 12 10 15 7 16 4 18v29l-4 17-7 16-8 13-11 12v3l11 15 9 19 4 16 1 6 1 31v89l-1 1h-60l-1-1-1-112-3-11-6-11-7-7-10-6-11-3-40-1v61l-1 90-1 1h-59l-1-1v-276zm61 60v80h50l10-3 9-6 8-8 5-10 2-14-2-11-6-12-7-7-10-6-6-2-10-1z"/>
<path transform="translate(1612,8)" d="m0 0h118l18 4 16 7 14 9 10 9 7 7 9 13 7 14 5 17 1 7v26l-3 15-6 16-8 14-8 10-6 7 9 12 8 14 5 13 4 20 1 66v52l-2 1h-59l-1-1-1-110-2-10-6-12-8-9-10-6-12-3-39-1-1 151-1 1h-59l-1-1v-338zm61 60v80h50l10-3 10-7 8-9 4-9 1-4v-16l-4-11-7-9-11-8-9-3-9-1z"/>
<path transform="translate(1937,2)" d="m0 0h20l20 4 16 7 12 8 13 11 11 14 9 16 5 15 2 9 1 9v182l-3 15-6 16-8 14-9 11-11 11-15 10-15 7-16 4-8 1h-17l-17-3-16-6-15-9-14-12-11-13-9-16-5-12-3-12-1-7v-180l3-19 5-15 9-16 9-11 10-10 14-10 17-8 16-4zm3 61-11 4-8 6-7 8-4 9-1 5v177l4 12 7 9 8 7 10 4h17l9-4 8-6 7-8 4-8 2-8v-143l-1-33-4-11-6-9-9-7-11-4z"/>
<path transform="translate(959,8)" d="m0 0h167v61h-106v79h105l1 1 1 36v24l-4 1h-103l1 88h96l10 1v61l-1 1h-166l-1-1z"/>
<path transform="translate(507,318)" d="m0 0h2v52l-10 5-174 73-174 73-10 4h-139v-35l473-161z" fill="#4EC768"/>
<path transform="translate(1388,8)" d="m0 0h197l1 1v59l-1 1h-68l1 196v95l-1 1h-60l-1-1v-291h-68z"/>
<path transform="translate(476,186)" d="m0 0h1l1 21 6-9 1 2-8 16v27l28-7h4v43l-8 3-63 18-141 40-201 57-92 26h-2l-1-41v-19l8-3 56-14h2l1-18 4-48 2-25h1l1 33 2-3 1-12h1v7l6-5-2 6-8 16v19l1 27 56-14 1-2 3-33v-10l2-13h1l1 20 4-6 1 2-5 10v30l284-71h3v-10l1-19 1-5h1l1 10 3-3-2 6-1 2v13l1 4 36-9h2l1-17 3-37z" fill="#4EC768"/>
<path transform="translate(607,1)" d="m0 0h9l6 4 5 8 1 5v491l-3 9-4 5-6 3h-8l-6-4-5-7-1-4v-495l3-8 7-6z"/>
<path transform="translate(506,421)" d="m0 0h3v104h-221l1-2 28-13 38-18 30-14 38-18 68-32z" fill="#4EC768"/>
<path transform="translate(714,457)" d="m0 0h23l1 2-4 2v7l14 34 2 5 2 1 1-5 6-15-1-6-6-15-1-3-5-2-5-3v-2h22l-3 6 4 10v2h2l3-10v-4l-3-3 1-1h16l-1 3-7 3-6 13-1 6 9 23v3h2l2-9 9-29 1-6-2-3-4-2 1-2h21l-1 3-6 3-5 10-16 47-3 4-3-5-10-25v-3h-2l-3 10-9 23h-2l-9-21-13-33-5-8-6-3z" fill="#010101"/>
<path transform="translate(1448,457)" d="m0 0h13l7 1 5 15 14 35 2-2 11-23 8-17 2-8 8-1h10l-1 3-9 3v15l2 34 2 6 8 3v2h-28l3-3 4-2 1-3-1-38-3 4-21 42h-2l-7-18-12-29-2 13-1 10v17l3 3 5 2v2h-24l3-3 5-3 2-10 3-29v-13l-3-3-7-2z"/>
<path transform="translate(1704,457)" d="m0 0h33l8 3 5 6 1 3v8l-4 8-7 5 2 5 8 11 9 10 5 3 8 1v3l-4 2h-7l-7-3-8-7-9-13-6-7-8-2-1 1v19l2 5 7 3v2h-28v-2l9-4v-53l-1-2-7-3zm20 3-2 2-1 25 3 3 9-1 7-6 2-5v-8l-4-8-4-2z"/>
<path transform="translate(998,457)" d="m0 0h32l8 3 5 5 1 3v10l-4 7-5 4-2 1 2 5 9 12 9 10 4 2 8 1v3l-4 2h-7l-10-5-8-9-9-14-6-3-6-1 1 23 3 3 6 3v1h-29v-2l8-3 2-3v-48l-2-5-7-3zm19 3-2 3v26l8 1 8-4 4-7v-10l-3-6-5-3z"/>
<path transform="translate(1194,457)" d="m0 0h44l2 8-1 5-2-1-3-6-1-1h-20l-1 25 15-1 3-4h2v15l-3-1-2-4-15-1 1 26 1 1h21l6-8h2v8l-2 5h-48v-2l9-4 1-4v-47l-2-4-7-3z"/>
<path transform="translate(820,452)" d="m0 0h2v35l9-5 9-1 5 3 3 4 1 3 1 27 5 3v2h-19v-2l5-3v-25l-4-5-7-1-6 2-1 2-1 28 5 2v2h-19v-2l6-2v-54l-2-5-3-2v-2z" fill="#030303"/>
<path transform="translate(1901,457)" d="m0 0h29v3l-10 3-1 2v50l2 3h22l5-3 5-8h2l-1 8-2 8h-52v-2l9-4v-55l-8-3z"/>
<path transform="translate(2006,452)" d="m0 0h11l4 2 1 5-2 3-5-2-5-3h-7l-3 1-3 9-1 15 15 1-1 4-14 1 1 30 5 3v2h-20l4-4h2l1-31-7-1v-2l6-3 2-13 5-10 8-6z"/>
<path transform="translate(1329,481)" d="m0 0 7 1 3 3 1 3v28l2 3 6-1-2 4-3 2h-6l-5-4-4 3-3 1h-7l-6-5v-6l5-5 14-6 1-11-3-4-6 1-2 1-1 5-4 2h-3l1-6 9-7zm0 25-8 5-1 5 4 4 5-1 3-3v-10z" fill="#020202"/>
<path transform="translate(1122,481)" d="m0 0 7 1 4 4 1 32 4 1 4-1-2 4-3 2h-6l-5-4-7 4h-8l-5-5-1-3 2-5 5-4 12-5 1-1v-11l-3-3-6 1-3 6-4 2h-3l1-5 8-7zm1 25-8 4-1 1v6l4 3 6-2 2-4v-8z" fill="#010101"/>
<path transform="translate(1829,481)" d="m0 0 7 1 4 5v26l2 6 7-1-2 4-4 2-7-1-2-4-8 5h-8l-5-4-1-6 5-6 14-6 1-2v-10l-3-3-8 1-1 6-4 2h-3l1-5 8-7zm0 25-8 5-1 5 2 3 5 1 5-4 1-9z" fill="#010101"/>
<path transform="translate(1863,452)" d="m0 0h2v66l6 3v2h-20v-2l6-2-1-58-4-3v-2z"/>
<path transform="translate(1789,481)" d="m0 0h8l6 3 3 5-1 6-3 2-22 1v7l4 8 6 4h8l7-4-1 5-6 5-3 1h-10l-6-4-4-5-2-5v-13l5-10 5-4zm0 3-5 3-3 3v4h16l2-1v-5l-3-3z" fill="#010101"/>
<path transform="translate(1156,452)" d="m0 0h2v67l6 2v2h-20l3-3 3-2v-54l-2-4-3-3 9-4z"/>
<path transform="translate(1592,481)" d="m0 0h8l7 3 2 3v7l-4 3h-22l1 10 4 7 5 3h9l5-4h2l-1 4-5 5-5 2h-10l-6-4-5-8-1-4v-10l4-9 7-6zm1 3-6 3-3 4 1 3h16l2-1-1-6-6-3z" fill="#020202"/>
<path transform="translate(2030,481)" d="m0 0h7l7 3 2 3v7l-1 2-3 1h-22l1 10 4 7 5 3h9l7-4-1 5-5 4-5 2h-9l-7-4-4-6-2-8 1-11 6-9 6-4zm0 3-7 4-1 6h16l2-1v-5l-3-3z"/>
<path transform="translate(1400,481)" d="m0 0h7l8 4 1 2v7l-4 3h-22l1 10 4 7 5 3h9l5-4h2l-1 5-5 4-5 2h-10l-7-5-4-8-1-4v-8l4-10 7-6zm0 3-6 3-3 4 1 3h16l2-1-1-6-5-3z"/>
<path transform="translate(1082,481)" d="m0 0h8l6 3 3 4v6l-4 3-22 1 1 10 5 7 4 2h9l5-4h2l-2 6-6 4-3 1h-10l-6-4-5-8-1-3v-11l3-8 8-7zm0 3-6 4-2 5 1 1h16l2-2-1-5-6-3z"/>
<path transform="translate(877,481)" d="m0 0h8l6 3 3 4-1 7-3 2-22 1v7l4 8 6 4h8l5-3 2-1-1 6-6 4-3 1h-10l-6-4-4-5-2-6v-12l4-8 7-6zm0 3-5 3-3 4 1 3h16l2-4-2-4-5-2z"/>
<path transform="translate(1553,481)" d="m0 0h8l6 3 3 4v6l-4 3h-22v7l4 9 6 4h9l5-4h2l-2 6-6 4-3 1h-10l-6-4-5-8-1-4v-10l4-9 7-6zm0 3-6 4-2 5 1 1h16l2-1-1-6-6-3z" fill="#010101"/>
<path transform="translate(950,481)" d="m0 0h7l7 3 2 3v8l-4 2h-22l2 12 6 7 3 1h8l7-4-1 5-5 4-5 2h-9l-5-3-5-6-3-10 1-9 4-8 8-6zm0 3-7 4-1 6h16l2-1v-5l-3-3z"/>
<path transform="translate(1658,481)" d="m0 0h8l5 3 1 8-4-2-2-5h-8l-2 3 1 6 5 4 8 6 3 5v8l-4 5-5 2h-11l-5-3-1-7h3l4 5 2 1h9v-8l-5-5-10-9-1-2v-7l6-7z" fill="#010101"/>
<path transform="translate(1626,476)" d="m0 0h2l1 6 14 1v4l-14 1v27l4 3 10-1-2 4-6 3h-8l-5-4-1-2v-30l-5-1 1-3 8-7z"/>
<path transform="translate(1291,476)" d="m0 0h2l1 6 13 1v4l-13 1-1 2v21l2 6 7 1 6-1-1 3-7 4h-8l-5-4-2-6v-26l-5-2 5-4z" fill="#010101"/>
<path transform="translate(1259,481)" d="m0 0h7l5 2 1 2v7l-4-2-3-5h-6l-2 2v6l7 6 7 5 3 6-1 8-5 5-3 1h-11l-5-3-1-1v-6h3l2 4 3 2h8l2-2v-6l-1-3-4-2-10-9-1-2v-8l4-5z" fill="#010101"/>
<path transform="translate(1362,476)" d="m0 0h2l1 6 14 1v4l-15 1 1 25 2 4 7 1 5-1-2 4-5 3h-9l-5-5-1-3v-28l-5-1 1-3 7-5z"/>
<path transform="translate(911,480)" d="m0 0h3v6l9-5 6 1 1 4-3 4-10-1-3 3-1 26 5 2 2 1v2h-20v-2l5-3v-26l-1-3-3-3z" fill="#010101"/>
<path transform="translate(835,481)" d="m0 0 8 1 5 6 1 3 1 27 5 3v2h-19v-2l5-3v-25l-4-5-7-1-4-1 5-4z"/>
<path transform="translate(1971,479)" d="m0 0h1v39l5 3v2h-19v-2l5-3v-27l-4-4v-2z"/>
<path transform="translate(1965,461)" d="m0 0 5 1 2 2-1 6-7 1-2-2 1-7z"/>
<path transform="translate(479,200)" d="m0 0" fill="#4EC768"/>
<path transform="translate(146,283)" d="m0 0" fill="#4EC768"/>
<path transform="translate(71,275)" d="m0 0" fill="#4EC768"/>
<path transform="translate(86,273)" d="m0 0" fill="#4EC768"/>
<path transform="translate(70,273)" d="m0 0" fill="#4EC768"/>
<path transform="translate(68,268)" d="m0 0" fill="#4EC768"/>
<path transform="translate(473,198)" d="m0 0" fill="#4EC768"/>
<path transform="translate(142,286)" d="m0 0" fill="#4EC768"/>
<path transform="translate(147,282)" d="m0 0" fill="#4EC768"/>
<path transform="translate(136,281)" d="m0 0" fill="#4EC768"/>
<path transform="translate(87,272)" d="m0 0" fill="#4EC768"/>
<path transform="translate(69,271)" d="m0 0" fill="#4EC768"/>
<path transform="translate(67,266)" d="m0 0" fill="#4EC768"/>
<path transform="translate(435,228)" d="m0 0" fill="#4EC768"/>
<path transform="translate(472,196)" d="m0 0" fill="#4EC768"/>
</svg>
