<?xml version="1.0" encoding="UTF-8"?>
<svg version="1.1" viewBox="0 0 2048 2048" width="1280" height="1280" xmlns="http://www.w3.org/2000/svg">
<path transform="translate(994)" d="m0 0 2 1 1-1h58l1 2 19 5 18 6 25 13 11 8 10 8 11 9 12 12 8 7 24 24 8 7 20 20 2 1v2l4 2 26 26 8 7 12 12 13 9 13 5 4 1h22l157-22 19-2 17-1h13l22 3 17 4 25 9 23 13 12 9 10 9 8 7 11 12 12 17 8 14 8 18 6 20 6 27 25 143 5 23 8 16 8 9 13 9 23 12 22 12 31 16 22 12 27 14 22 12 15 9 19 13 12 11 14 14 12 17 8 13 9 20 5 14 6 29 1 15v21l-5 28-8 24-9 21-11 23-16 32-12 25-12 24-11 23-10 21-4 11-2 15 2 15 6 15 12 25 19 39 26 53 16 33 10 26 4 13 5 29v20l-1 16-6 28-6 16-8 18-7 11-11 16-9 10-13 13-12 9-20 13-18 10-22 12-16 8-28 15-23 12-22 12-23 12-11 7-11 10-8 14-4 13-7 38-11 64-12 67-7 27-6 16-8 16-7 12-10 13-8 10-9 9-11 9-12 9-23 13-25 9-16 4-19 3h-32l-34-4-98-14-45-6-11-1h-9l-16 4-10 6-9 7-10 10-8 7-21 21h-2v2l-8 7-19 19-8 7-25 25-8 7-14 14-11 9-18 14-29 15-25 8-23 5h-49l-2-2-26-7-13-5-22-11-14-10-16-13-12-11-20-20-8-7-21-21-8-7-17-17-8-7-25-25-8-7-10-8-12-6-13-3h-13l-53 7-114 16-17 2-19 1-23-2-15-3-24-7-25-12-23-16-17-16-11-13-12-17-9-17-8-20-7-28-8-44-15-85-7-39-5-16-7-12-8-8-16-10-27-14-22-12-27-14-22-12-25-13-22-12-16-10-12-8-11-10-8-7-7-7-10-13-10-15-8-16-7-16-7-28-2-20v-24l5-29 7-21 8-19 14-29 9-19 23-46 11-23 11-22 9-21 2-9v-19l-5-16-17-35-10-21-20-40-11-23-18-37-8-20-5-16-5-28v-26l2-18 7-29 12-27 10-16 11-15 23-23 30-20 92-49 34-18 23-12 14-9 6-5 7-10 5-10 5-21 16-91 11-63 7-28 5-15 8-17 8-14 13-17 8-10 8-7 14-12 14-9 18-10 24-9 11-3 26-4h15l29 2 72 10 85 12 8 1h21l13-4 11-6 11-9 24-24 8-7 21-21 8-7 21-21h2v-2h2v-2l8-7 17-17 8-7 10-9 14-11 9-6 20-11 19-7 24-7zm23 119-14 3-13 7-11 10-8 7-17 17-2 1v2h-2v2l-4 2-25 25-8 7-25 25-4 3v2l-4 2-21 21-8 7-13 10-15 10-16 8-15 6-21 6-17 3-10 1h-22l-33-4-142-20-24-2-16 3-12 6-10 8-7 8-7 14-4 16-15 84-11 64-7 34-7 21-9 19-10 16-11 14-11 12-2 1v2l-4 2-11 9-15 10-22 12-34 18-18 10-16 8-32 17-20 11-16 8-15 10-8 8-8 14-3 9-2 16 3 17 8 19 20 40 11 23 8 17 21 42 11 23 10 25 5 19 2 13 1 13v17l-2 21-5 22-6 16-8 18-16 33-12 25-19 38-11 23-13 26-6 17-2 17 3 16 8 16 9 10 15 10 27 14 22 12 27 14 22 12 27 14 22 12 14 8 17 12 14 12 12 13 11 15 9 15 8 17 7 21 7 35 22 125 5 28 5 15 6 10 7 8 13 9 10 4 8 2h20l120-17 52-7 10-1h25l24 3 25 7 16 7 19 10 12 9 14 11 12 11 12 12h2l1 3 8 7 25 25h2v2l8 7 18 18 8 7 24 24h2v2l8 7 10 7 8 4 11 3 16 1 14-3 14-7 10-8 15-15 2-1v-2l4-2 23-23 8-7 25-25 8-7 21-21 8-7 12-12 11-9 17-12 18-10 20-8 25-6 13-2h32l34 4 141 20 8 1h18l11-3 14-7 9-7 8-11 5-10 5-22 16-91 12-68 5-21 7-20 8-16 11-18 10-12 7-8 10-10 13-10 19-12 56-30 23-12 22-12 27-14 22-12 12-7 11-9 9-14 4-11 1-5v-19l-5-17-20-41-8-17-24-48-11-23-15-31-8-21-6-23-2-16v-30l3-20 5-19 6-16 11-24 16-32 22-46 8-16 10-21 8-16 7-15 3-12v-20l-5-15-5-9-9-10-11-8-68-36-28-15-23-12-22-12-17-9-14-9-12-9-12-11-10-10-11-14-11-18-9-19-6-19-6-28-21-120-8-43-5-14-7-11-7-7-12-8-15-5-7-1h-10l-39 5-127 18-26 3h-20l-18-2-25-6-25-10-16-9-14-10-14-12-3-1v-2l-8-7-27-27h-2v-2h-2v-2l-8-7-21-21-8-7-17-17-8-7-21-21-14-10-12-5-10-2z"/>
<path transform="translate(1403,575)" d="m0 0h21l13 4 11 6 12 11 8 13 4 11 1 5v17l-3 13-7 13-13 15-733 733h-2l-2 4h-2l-2 4-6 5-6 7h-2l-2 4h-2l-2 4h-2l-2 4h-2l-2 4h-2l-1 3-12 9-12 6-14 3h-13l-16-4-12-7-9-8-9-13-5-13-2-16 3-16 5-12 10-13 782-782 10-7 11-5z"/>
<path transform="translate(770,492)" d="m0 0h36l22 3 21 5 20 7 25 12 18 12 11 9 13 11 8 7 9 11 10 12 9 13 8 14 10 21 7 21 5 22 2 14 1 16v11l-2 27-5 24-6 20-8 18-10 19-11 16-13 15-8 10-15 13-15 12-14 9-23 12-19 7-17 5-21 4-17 2h-28l-23-3-22-5-18-6-20-9-16-9-14-10-13-11-8-7-7-6-9-11-12-14-10-15-7-12-9-20-7-21-5-23-2-14-1-23 2-26 4-22 5-18 7-19 8-16 13-21 13-15 7-9 5-6 11-9 14-12 14-10 18-10 18-8 21-7 24-5zm14 119-17 2-16 5-16 8-16 13-9 10-7 11-6 12-5 16-2 16 1 21 4 15 5 13 6 10 8 10 7 8 13 10 15 8 20 6 21 2 21-3 15-5 15-8 14-11 11-12 8-13 6-13 4-14 1-11v-17l-2-13-5-16-9-17-7-9-6-7-14-11-17-9-17-5-17-2z"/>
<path transform="translate(1243,1122)" d="m0 0h35l23 3 20 5 20 7 15 7 17 9 14 10 13 11 11 9 8 8 9 11 12 15 11 18 8 16 6 15 6 20 4 19 2 20v28l-3 26-6 24-8 22-8 17-12 19-14 17-9 11-7 7-11 9-13 11-17 11-17 9-23 9-22 6-24 4-13 1h-21l-20-2-25-5-24-8-25-12-16-10-22-18-12-11-10-11-11-14-8-11-9-15-9-20-8-24-4-18-2-12-1-11v-29l2-18 4-20 8-26 9-20 10-18 10-13 9-11 12-14 11-10 10-8 13-10 15-9 16-8 15-6 15-5 17-4zm15 119-18 2-14 4-9 4-12 7-15 12-11 14-7 12-6 16-3 15v24l3 15 6 16 9 15 11 12 9 8 11 7 10 5 11 4 8 2 9 1h21l15-3 12-4 17-9 16-13 11-14 9-17 5-17 2-20-2-20-5-17-9-17-10-13-8-8-13-9-16-8-21-5z"/>
</svg>
